<svg xmlns="http://www.w3.org/2000/svg" viewBox="0 0 32 34" width="30" height="32">
	<style>
		tspan { white-space:pre }
		.shp0 { fill: #000000 } 
	</style>
	<path id="Layer" class="shp0" d="M22.12,24.81l3.74,6.49h-2.31l-0.67,-1.17h-13.76l-0.67,1.17h-2.31l3.74,-6.49c-1.46,-0.84 -3.21,-1.97 -3.66,-2.42c-0.69,-0.69 -0.61,-4.31 -0.61,-4.31c0,-2.21 0.66,-10.33 1.6,-12.1c0.94,-1.77 6.19,-3.26 8.79,-3.26c2.6,0 7.85,1.49 8.79,3.26c0.94,1.77 1.6,9.89 1.6,12.1c0,0 0.08,3.62 -0.61,4.31c-0.45,0.45 -2.2,1.58 -3.66,2.42zM24.68,16.94c0,-0.47 -0.38,-0.86 -0.86,-0.86c-0.47,0 -0.86,0.38 -0.86,0.86c0,0.47 0.38,0.86 0.86,0.86c0.47,0 0.86,-0.38 0.86,-0.86zM20.42,7.96v6.13h4.57c-0.19,-2.15 -0.48,-4.57 -0.81,-6.13zM14.42,4.13v1.33h3.17v-1.33zM7.01,14.09h4.58v-6.13h-3.77c-0.33,1.56 -0.62,3.98 -0.81,6.13zM9.04,16.94c0,-0.47 -0.38,-0.86 -0.86,-0.86c-0.47,0 -0.86,0.38 -0.86,0.86c0,0.47 0.38,0.86 0.86,0.86c0.47,0 0.86,-0.38 0.86,-0.86zM10.2,17.79c0.47,0 0.86,-0.38 0.86,-0.86c0,-0.47 -0.38,-0.86 -0.86,-0.86c-0.47,0 -0.86,0.38 -0.86,0.86c0,0.47 0.38,0.86 0.86,0.86zM21.72,28.13l-0.99,-1.71h-9.47l-0.99,1.72zM21.8,17.79c0.47,0 0.86,-0.38 0.86,-0.86c0,-0.47 -0.38,-0.86 -0.86,-0.86c-0.47,0 -0.86,0.38 -0.86,0.86c0,0.47 0.38,0.86 0.86,0.86z" />
</svg>